# xmcd
#
# Track frame offsets:
#	150
#	13595
#	25676
#	44116
#	58901
#	77377
#	93968
#	109264
#	121639
#	137734
#	152340
#	166891
#	178310
#	191737
#	203928
#	219153
#
# Disc length: 3667 seconds
#
# Revision: 1
# Processed by: cddbd v1.5.2PL0 Copyright (c) Steve Scherf et al.
# Submitted via: audiograbber 1.83.01
#
DISCID=d10e5110
DTITLE=Various Artist - CDX 10
DYEAR=1991
DGENRE=Country
TTITLE0=Bill Young - Beyond Tonight
TTITLE1=Dude Mowrey - Cowboy's Don't Cry
TTITLE2=Gary Morris - Full Moon On An Empty Heart
TTITLE3=Sharon Anderson - Go For Broke
TTITLE4=The Normaltown Flyers - I Just Couldn't Stay Away
TTITLE5=BB Watson - Light At The End Of The Tunnel
TTITLE6=Lacy J. Dalton - Lightnin' Strikes A Good Man
TTITLE7=Joe Diffie - New Way (To Light Up An Old Flame)
TTITLE8=Davis Daniel - Picture Me
TTITLE9=Marty Stuart - Tempted
TTITLE10=Jeff Chance - Thirty Days In Twenty Years
TTITLE11=Neal McCoy - This Time I Hurt Her More (Than She Loves Me)
TTITLE12=Johnny Cash - Wanted Man
TTITLE13=Cee Cee Chapman - What Would Elvis Do
TTITLE14=T. Graham Brown - You Can't Take It With You
TTITLE15=BB Watson - Interview
EXTD=
EXTT0=
EXTT1=
EXTT2=
EXTT3=
EXTT4=
EXTT5=
EXTT6=
EXTT7=
EXTT8=
EXTT9=
EXTT10=
EXTT11=
EXTT12=
EXTT13=
EXTT14=
EXTT15=
PLAYORDER=
